<?xml version="1.0" standalone="no"?>
<!DOCTYPE svg PUBLIC "-//W3C//DTD SVG 20010904//EN"
 "http://www.w3.org/TR/2001/REC-SVG-20010904/DTD/svg10.dtd">
<svg version="1.0" xmlns="http://www.w3.org/2000/svg"
 width="400.000000pt" height="400.000000pt" viewBox="0 0 400.000000 400.000000"
 preserveAspectRatio="xMidYMid meet">

<g transform="translate(0.000000,400.000000) scale(0.100000,-0.100000)"
fill="#000000" stroke="none">
<path d="M1515 3916 c-71 -24 -183 -60 -249 -81 -65 -21 -120 -44 -122 -50 -3
-6 3 -40 11 -76 30 -118 38 -158 32 -172 -3 -8 -25 -24 -49 -37 -74 -38 -177
-112 -263 -186 l-81 -72 -108 69 c-60 38 -112 67 -116 64 -12 -7 -320 -433
-320 -442 0 -4 15 -19 32 -33 71 -55 158 -133 158 -140 0 -6 -26 -70 -76 -188
-8 -18 -14 -39 -14 -47 0 -9 -4 -23 -10 -33 -9 -17 -26 -86 -38 -157 l-7 -40
-127 -9 -128 -8 0 -283 0 -282 122 -6 c128 -7 138 -11 138 -56 0 -14 4 -38 10
-55 5 -17 17 -58 26 -91 19 -66 68 -195 90 -237 8 -14 14 -31 14 -37 0 -5 -43
-45 -95 -87 -52 -43 -95 -82 -95 -87 0 -17 314 -437 328 -437 7 0 58 29 114
65 l100 64 47 -44 c63 -60 174 -142 272 -202 43 -26 79 -55 79 -63 0 -8 -12
-64 -26 -123 -21 -85 -24 -111 -15 -117 7 -4 86 -31 174 -60 89 -28 169 -55
178 -60 9 -5 33 -12 53 -15 20 -4 39 -11 42 -16 3 -5 18 -9 33 -9 32 0 36 7
85 135 32 86 35 90 62 88 40 -2 434 -2 463 0 21 2 27 -8 57 -88 49 -128 53
-135 85 -135 15 0 30 4 33 9 3 5 22 12 42 16 20 3 44 10 53 15 9 5 89 32 178
60 88 29 167 56 174 60 9 6 6 32 -15 117 -14 59 -26 115 -26 124 0 9 15 24 33
34 53 27 70 38 142 89 61 43 163 125 203 163 21 20 29 17 128 -47 51 -33 99
-60 106 -60 14 0 328 420 328 438 0 5 -41 42 -90 82 -50 40 -93 76 -96 81 -2
5 7 34 21 65 28 60 53 126 61 159 3 11 10 29 15 40 10 23 27 90 39 159 5 27
11 50 13 52 2 2 58 7 125 11 l122 6 0 283 0 282 -125 7 -125 7 -6 37 c-7 42
-12 60 -55 201 -18 58 -45 133 -61 167 -15 34 -28 63 -28 66 0 5 100 91 158
137 17 14 32 29 32 33 0 9 -308 435 -320 442 -4 3 -56 -26 -115 -64 l-109 -68
-25 24 c-83 78 -258 205 -338 247 -36 18 -39 34 -23 96 30 118 40 165 36 175
-2 6 -57 29 -122 50 -66 21 -179 58 -251 82 -73 23 -135 43 -137 43 -2 0 -12
-21 -22 -47 -9 -27 -21 -52 -26 -58 -4 -5 -8 -15 -8 -23 0 -8 -6 -28 -14 -45
-8 -18 -16 -38 -18 -45 -6 -21 -520 -21 -526 -1 -2 8 -10 28 -18 46 -8 17 -14
37 -14 45 0 8 -4 18 -8 24 -5 5 -17 30 -26 57 -10 26 -21 47 -24 47 -4 -1 -65
-20 -137 -44z m780 -459 c112 -25 159 -37 180 -46 11 -5 40 -16 65 -26 315
-123 576 -345 753 -641 55 -91 118 -235 144 -329 45 -159 55 -239 56 -420 0
-181 -8 -247 -49 -395 -24 -87 -85 -247 -104 -275 -4 -5 -22 -37 -40 -70 -49
-88 -162 -238 -240 -315 -106 -106 -340 -273 -354 -252 -13 21 -25 183 -18
247 l7 70 80 39 c118 58 226 181 309 351 11 22 42 69 68 104 27 36 51 75 54
87 7 27 -14 90 -58 174 -88 165 -152 284 -242 445 -40 72 -56 111 -56 138 0
50 16 81 38 72 9 -4 53 -15 97 -26 44 -11 94 -24 111 -29 41 -13 40 -14 52 18
17 43 22 76 14 89 -4 6 -29 18 -57 26 -139 42 -159 47 -174 47 -23 1 -51 24
-51 43 0 28 -28 44 -89 51 -35 4 -69 15 -84 26 -35 28 -58 25 -89 -10 -18 -20
-35 -30 -55 -30 -26 0 -359 80 -413 99 -14 5 -43 13 -65 19 -22 6 -71 19 -110
30 -38 11 -81 23 -95 26 -17 4 -30 18 -43 46 -18 42 -27 48 -114 74 -67 21
-103 20 -133 -1 -30 -21 -117 -23 -172 -4 -35 12 -38 16 -38 51 0 20 7 70 16
109 9 39 14 78 11 86 -4 8 -26 17 -57 21 -28 4 -53 11 -56 15 -3 5 -20 9 -39
9 -28 0 -36 -6 -49 -32 -9 -17 -16 -41 -16 -52 0 -40 -34 -118 -57 -129 -32
-14 -37 -52 -14 -98 19 -36 20 -46 10 -145 -6 -58 -8 -108 -6 -111 3 -2 35
-11 72 -18 37 -8 75 -17 84 -20 19 -6 36 28 46 94 11 69 33 113 53 107 110
-29 135 -41 153 -70 11 -19 19 -50 19 -77 0 -44 -4 -50 -57 -102 -32 -30 -82
-75 -110 -99 -158 -131 -317 -365 -343 -505 -10 -57 -10 -60 30 -148 15 -33
35 -85 44 -115 61 -191 79 -230 228 -490 131 -227 161 -273 199 -307 59 -53
70 -76 59 -124 -5 -24 -16 -75 -24 -112 -7 -37 -16 -70 -18 -73 -9 -8 -179 65
-272 116 -303 168 -544 445 -671 770 -10 25 -21 54 -26 65 -9 22 -22 69 -46
180 -24 108 -29 425 -8 534 58 311 184 561 394 784 212 224 489 374 816 441
95 19 451 15 550 -7z m-425 -786 c19 -5 107 -28 195 -51 88 -23 185 -48 215
-54 30 -7 62 -15 70 -18 8 -4 38 -11 65 -16 122 -25 148 -36 156 -65 4 -16 34
-62 66 -104 32 -42 61 -81 65 -87 19 -29 69 -181 84 -251 12 -58 77 -240 96
-267 10 -14 18 -31 18 -37 0 -27 -108 -180 -164 -233 l-61 -58 -62 6 c-34 3
-96 0 -138 -6 -66 -10 -79 -9 -101 4 -52 35 -101 141 -90 199 7 37 63 102 141
164 l39 32 -17 35 c-9 20 -21 36 -27 36 -8 0 -52 -36 -184 -152 -37 -32 -45
-34 -62 -10 -29 37 -16 62 93 188 29 34 53 65 53 70 0 5 -9 20 -20 34 -25 32
-25 55 1 91 11 16 18 33 15 38 -3 5 -32 17 -64 26 -66 20 -206 87 -240 115
-45 37 -44 111 1 149 20 16 22 31 4 31 -19 0 -51 -37 -79 -90 -19 -37 -29 -46
-54 -48 -41 -4 -61 19 -45 54 13 29 15 64 3 64 -10 0 -34 -52 -57 -127 -9 -28
-23 -57 -31 -63 -22 -19 -44 6 -44 51 0 22 -4 39 -9 39 -13 0 -21 -38 -21
-106 0 -65 -14 -90 -44 -78 -22 9 -36 45 -36 95 0 22 -5 39 -11 39 -11 0 -8
-74 7 -193 10 -82 -33 -99 -51 -19 -8 38 -25 52 -25 20 1 -24 33 -124 44 -135
9 -10 7 -53 -3 -53 -5 0 -14 7 -21 15 -37 45 -30 -13 8 -69 51 -74 237 -216
310 -235 49 -14 67 -38 76 -102 4 -25 18 -77 31 -115 14 -38 25 -79 25 -91 0
-24 -85 -93 -115 -93 -27 0 -82 46 -113 93 -15 23 -56 83 -92 132 -36 50 -92
131 -124 180 -32 50 -68 100 -79 112 -11 12 -25 31 -31 42 -6 11 -35 58 -64
105 -60 99 -61 90 4 234 49 109 143 237 254 345 48 47 79 87 100 132 30 63 32
65 68 65 20 0 53 -4 72 -9z m152 -498 c23 -21 23 -34 -2 -61 -26 -28 -75 -29
-90 -3 -14 28 -13 38 10 61 24 24 57 26 82 3z"/>
</g>
</svg>
